# MagicaVoxel @ Ephtracy

# material
mtllib Bus.mtl
usemtl palette

# normals
vn -1 0 0
vn 1 0 0
vn 0 0 1
vn 0 0 -1
vn 0 -1 0
vn 0 1 0

# texcoords
vt 0.0214844 0.5
vt 0.0917969 0.5
vt 0.232422 0.5
vt 0.447266 0.5
vt 0.728516 0.5
vt 0.802734 0.5
vt 0.849609 0.5
vt 0.966797 0.5
vt 0.986328 0.5
vt 0.990234 0.5
vt 0.994141 0.5

# verts
v -11 2 7
v -11 2 6
v -11 2 5
v -11 2 4
v -11 2 2
v -11 2 1
v -11 2 -0
v -11 2 -1
v -11 3 6
v -11 3 5
v -11 3 4
v -11 3 2
v -11 3 1
v -11 3 -0
v -11 4 6
v -11 4 5
v -11 4 1
v -11 4 -0
v -11 6 6
v -11 6 -0
v -11 7 4
v -11 7 2
v -11 8 6
v -11 8 4
v -11 8 2
v -11 8 -0
v -11 9 7
v -11 9 -1
v -7 1 8
v -7 1 7
v -7 1 -1
v -7 1 -2
v -7 2 7
v -7 2 -1
v -7 3 8
v -7 3 7
v -7 3 -1
v -7 3 -2
v -6 0 8
v -6 0 7
v -6 0 -1
v -6 0 -2
v -6 1 8
v -6 1 7
v -6 1 -1
v -6 1 -2
v -6 3 8
v -6 3 7
v -6 3 -1
v -6 3 -2
v -6 4 8
v -6 4 7
v -6 4 -1
v -6 4 -2
v -5 9 4
v -5 9 2
v -5 10 4
v -5 10 2
v 0 9 5
v 0 9 1
v 0 10 5
v 0 10 1
v 4 1 -1
v 4 1 -2
v 4 2 -1
v 4 3 -1
v 4 3 -2
v 5 0 -1
v 5 0 -2
v 5 1 8
v 5 1 7
v 5 1 -1
v 5 1 -2
v 5 2 7
v 5 3 8
v 5 3 7
v 5 3 -1
v 5 3 -2
v 5 4 -1
v 5 4 -2
v 6 0 8
v 6 0 7
v 6 1 8
v 6 1 7
v 6 3 8
v 6 3 7
v 6 4 8
v 6 4 7
v -4 0 8
v -4 0 7
v -4 0 -1
v -4 0 -2
v -4 1 8
v -4 1 7
v -4 1 -1
v -4 1 -2
v -4 3 8
v -4 3 7
v -4 3 -1
v -4 3 -2
v -4 4 8
v -4 4 7
v -4 4 -1
v -4 4 -2
v -3 1 8
v -3 1 7
v -3 1 -1
v -3 1 -2
v -3 2 7
v -3 2 -1
v -3 3 8
v -3 3 7
v -3 3 -1
v -3 3 -2
v -2 9 4
v -2 9 2
v -2 10 4
v -2 10 2
v 6 9 5
v 6 9 1
v 6 10 5
v 6 10 1
v 7 0 -1
v 7 0 -2
v 7 1 -1
v 7 1 -2
v 7 3 -1
v 7 3 -2
v 7 4 -1
v 7 4 -2
v 8 0 8
v 8 0 7
v 8 1 8
v 8 1 7
v 8 1 -1
v 8 1 -2
v 8 2 -1
v 8 3 8
v 8 3 7
v 8 3 -1
v 8 3 -2
v 8 4 8
v 8 4 7
v 9 1 8
v 9 1 7
v 9 2 7
v 9 3 8
v 9 3 7
v 12 2 7
v 12 2 4
v 12 2 2
v 12 2 -1
v 12 3 7
v 12 3 6
v 12 3 4
v 12 3 2
v 12 3 -0
v 12 3 -1
v 12 4 7
v 12 4 6
v 12 4 -0
v 12 4 -1
v 12 5 6
v 12 5 -0
v 12 8 6
v 12 8 5
v 12 8 1
v 12 8 -0
v 12 9 7
v 12 9 5
v 12 9 1
v 12 9 -1
v -7 1 8
v -7 3 8
v -6 0 8
v -6 1 8
v -6 3 8
v -6 4 8
v -4 0 8
v -4 1 8
v -4 3 8
v -4 4 8
v -3 1 8
v -3 3 8
v 5 1 8
v 5 3 8
v 6 0 8
v 6 1 8
v 6 3 8
v 6 4 8
v 8 0 8
v 8 1 8
v 8 3 8
v 8 4 8
v 9 1 8
v 9 3 8
v -11 2 7
v -11 9 7
v -10 6 7
v -10 8 7
v -8 6 7
v -8 8 7
v -7 2 7
v -7 3 7
v -7 5 7
v -7 8 7
v -6 3 7
v -6 4 7
v -4 3 7
v -4 4 7
v -3 2 7
v -3 3 7
v -3 5 7
v -3 8 7
v -2 5 7
v -2 8 7
v 2 5 7
v 2 8 7
v 3 5 7
v 3 8 7
v 5 2 7
v 5 3 7
v 6 3 7
v 6 4 7
v 6 7 7
v 6 8 7
v 8 3 7
v 8 4 7
v 8 5 7
v 8 7 7
v 8 8 7
v 9 2 7
v 9 3 7
v 9 8 7
v 11 3 7
v 11 4 7
v 11 8 7
v 12 2 7
v 12 3 7
v 12 4 7
v 12 9 7
v 0 9 5
v 0 10 5
v 6 9 5
v 6 10 5
v -5 9 4
v -5 10 4
v -2 9 4
v -2 10 4
v -7 1 -1
v -7 2 -1
v -6 0 -1
v -6 1 -1
v -6 2 -1
v -4 0 -1
v -4 1 -1
v -4 2 -1
v -3 1 -1
v -3 2 -1
v 4 1 -1
v 4 2 -1
v 5 0 -1
v 5 1 -1
v 5 2 -1
v 7 0 -1
v 7 1 -1
v 7 2 -1
v 8 1 -1
v 8 2 -1
v -7 1 7
v -7 2 7
v -6 0 7
v -6 1 7
v -6 2 7
v -4 0 7
v -4 1 7
v -4 2 7
v -3 1 7
v -3 2 7
v 5 1 7
v 5 2 7
v 6 0 7
v 6 1 7
v 6 2 7
v 8 0 7
v 8 1 7
v 8 2 7
v 9 1 7
v 9 2 7
v -5 9 2
v -5 10 2
v -2 9 2
v -2 10 2
v 0 9 1
v 0 10 1
v 6 9 1
v 6 10 1
v -11 2 -1
v -11 9 -1
v -10 6 -1
v -10 8 -1
v -8 6 -1
v -8 8 -1
v -7 2 -1
v -7 3 -1
v -7 5 -1
v -7 8 -1
v -6 3 -1
v -6 4 -1
v -4 3 -1
v -4 4 -1
v -3 2 -1
v -3 3 -1
v -3 5 -1
v -3 8 -1
v -2 5 -1
v -2 8 -1
v 2 5 -1
v 2 8 -1
v 3 5 -1
v 3 8 -1
v 4 2 -1
v 4 3 -1
v 5 3 -1
v 5 4 -1
v 6 7 -1
v 6 8 -1
v 7 3 -1
v 7 4 -1
v 8 2 -1
v 8 3 -1
v 8 5 -1
v 8 7 -1
v 8 8 -1
v 9 5 -1
v 9 8 -1
v 11 3 -1
v 11 4 -1
v 11 5 -1
v 11 8 -1
v 12 2 -1
v 12 3 -1
v 12 4 -1
v 12 9 -1
v -7 1 -2
v -7 3 -2
v -6 0 -2
v -6 1 -2
v -6 3 -2
v -6 4 -2
v -4 0 -2
v -4 1 -2
v -4 3 -2
v -4 4 -2
v -3 1 -2
v -3 3 -2
v 4 1 -2
v 4 3 -2
v 5 0 -2
v 5 1 -2
v 5 3 -2
v 5 4 -2
v 7 0 -2
v 7 1 -2
v 7 3 -2
v 7 4 -2
v 8 1 -2
v 8 3 -2
v -6 0 8
v -4 0 8
v 6 0 8
v 8 0 8
v -6 0 7
v -4 0 7
v 6 0 7
v 8 0 7
v -6 0 -1
v -4 0 -1
v 5 0 -1
v 7 0 -1
v -6 0 -2
v -4 0 -2
v 5 0 -2
v 7 0 -2
v -7 1 8
v -6 1 8
v -4 1 8
v -3 1 8
v 5 1 8
v 6 1 8
v 8 1 8
v 9 1 8
v -7 1 7
v -6 1 7
v -4 1 7
v -3 1 7
v 5 1 7
v 6 1 7
v 8 1 7
v 9 1 7
v -7 1 -1
v -6 1 -1
v -4 1 -1
v -3 1 -1
v 4 1 -1
v 5 1 -1
v 7 1 -1
v 8 1 -1
v -7 1 -2
v -6 1 -2
v -4 1 -2
v -3 1 -2
v 4 1 -2
v 5 1 -2
v 7 1 -2
v 8 1 -2
v -11 2 7
v -7 2 7
v -6 2 7
v -4 2 7
v -3 2 7
v 5 2 7
v 6 2 7
v 8 2 7
v 9 2 7
v 12 2 7
v -11 2 6
v -10 2 6
v -11 2 5
v -10 2 5
v -11 2 4
v -10 2 4
v 11 2 4
v 12 2 4
v -11 2 2
v -10 2 2
v 11 2 2
v 12 2 2
v -11 2 1
v -10 2 1
v -11 2 -0
v -10 2 -0
v -11 2 -1
v -7 2 -1
v -6 2 -1
v -4 2 -1
v -3 2 -1
v 4 2 -1
v 5 2 -1
v 7 2 -1
v 8 2 -1
v 12 2 -1
v -7 3 8
v -6 3 8
v -4 3 8
v -3 3 8
v 5 3 8
v 6 3 8
v 8 3 8
v 9 3 8
v -7 3 7
v -6 3 7
v -4 3 7
v -3 3 7
v 5 3 7
v 6 3 7
v 8 3 7
v 9 3 7
v -7 3 -1
v -6 3 -1
v -4 3 -1
v -3 3 -1
v 4 3 -1
v 5 3 -1
v 7 3 -1
v 8 3 -1
v -7 3 -2
v -6 3 -2
v -4 3 -2
v -3 3 -2
v 4 3 -2
v 5 3 -2
v 7 3 -2
v 8 3 -2
v -6 4 8
v -4 4 8
v 6 4 8
v 8 4 8
v -6 4 7
v -4 4 7
v 6 4 7
v 8 4 7
v -6 4 -1
v -4 4 -1
v 5 4 -1
v 7 4 -1
v -6 4 -2
v -4 4 -2
v 5 4 -2
v 7 4 -2
v -11 9 7
v 12 9 7
v 0 9 5
v 6 9 5
v 11 9 5
v 12 9 5
v -5 9 4
v -2 9 4
v -5 9 2
v -2 9 2
v 0 9 1
v 6 9 1
v 11 9 1
v 12 9 1
v -11 9 -1
v 12 9 -1
v 0 10 5
v 6 10 5
v -5 10 4
v -2 10 4
v -5 10 2
v -2 10 2
v 0 10 1
v 6 10 1

# faces
f 9/6/1 2/6/1 1/6/1
f 9/2/1 3/2/1 2/2/1
f 10/6/1 4/6/1 3/6/1
f 10/2/1 3/2/1 9/2/1
f 11/8/1 5/8/1 4/8/1
f 11/6/1 4/6/1 10/6/1
f 12/6/1 6/6/1 5/6/1
f 12/8/1 5/8/1 11/8/1
f 13/2/1 7/2/1 6/2/1
f 13/6/1 6/6/1 12/6/1
f 14/6/1 8/6/1 7/6/1
f 14/2/1 7/2/1 13/2/1
f 15/6/1 9/6/1 1/6/1
f 15/7/1 10/7/1 9/7/1
f 16/6/1 13/6/1 12/6/1
f 16/7/1 10/7/1 15/7/1
f 16/6/1 12/6/1 11/6/1
f 16/6/1 11/6/1 10/6/1
f 17/7/1 14/7/1 13/7/1
f 17/6/1 13/6/1 16/6/1
f 18/6/1 8/6/1 14/6/1
f 18/7/1 14/7/1 17/7/1
f 19/6/1 15/6/1 1/6/1
f 19/6/1 16/6/1 15/6/1
f 19/6/1 18/6/1 17/6/1
f 19/6/1 17/6/1 16/6/1
f 20/6/1 8/6/1 18/6/1
f 20/6/1 18/6/1 19/6/1
f 21/5/1 20/5/1 19/5/1
f 22/5/1 20/5/1 21/5/1
f 23/6/1 19/6/1 1/6/1
f 23/5/1 21/5/1 19/5/1
f 24/3/1 22/3/1 21/3/1
f 24/5/1 21/5/1 23/5/1
f 25/5/1 20/5/1 22/5/1
f 25/3/1 22/3/1 24/3/1
f 26/6/1 8/6/1 20/6/1
f 26/5/1 20/5/1 25/5/1
f 27/6/1 24/6/1 23/6/1
f 27/6/1 25/6/1 24/6/1
f 27/6/1 26/6/1 25/6/1
f 27/6/1 23/6/1 1/6/1
f 28/6/1 8/6/1 26/6/1
f 28/6/1 26/6/1 27/6/1
f 33/10/1 30/10/1 29/10/1
f 34/11/1 32/11/1 31/11/1
f 35/10/1 33/10/1 29/10/1
f 36/10/1 33/10/1 35/10/1
f 37/11/1 32/11/1 34/11/1
f 38/11/1 32/11/1 37/11/1
f 43/10/1 40/10/1 39/10/1
f 44/10/1 40/10/1 43/10/1
f 45/11/1 42/11/1 41/11/1
f 46/11/1 42/11/1 45/11/1
f 51/10/1 48/10/1 47/10/1
f 52/10/1 48/10/1 51/10/1
f 53/11/1 50/11/1 49/11/1
f 54/11/1 50/11/1 53/11/1
f 57/8/1 56/8/1 55/8/1
f 58/8/1 56/8/1 57/8/1
f 61/8/1 60/8/1 59/8/1
f 62/8/1 60/8/1 61/8/1
f 65/11/1 64/11/1 63/11/1
f 66/11/1 64/11/1 65/11/1
f 67/11/1 64/11/1 66/11/1
f 72/11/1 69/11/1 68/11/1
f 73/11/1 69/11/1 72/11/1
f 74/10/1 71/10/1 70/10/1
f 75/10/1 74/10/1 70/10/1
f 76/10/1 74/10/1 75/10/1
f 79/11/1 78/11/1 77/11/1
f 80/11/1 78/11/1 79/11/1
f 83/10/1 82/10/1 81/10/1
f 84/10/1 82/10/1 83/10/1
f 87/10/1 86/10/1 85/10/1
f 88/10/1 86/10/1 87/10/1
f 89/10/2 90/10/2 93/10/2
f 93/10/2 90/10/2 94/10/2
f 91/11/2 92/11/2 95/11/2
f 95/11/2 92/11/2 96/11/2
f 97/10/2 98/10/2 101/10/2
f 101/10/2 98/10/2 102/10/2
f 99/11/2 100/11/2 103/11/2
f 103/11/2 100/11/2 104/11/2
f 105/10/2 106/10/2 109/10/2
f 107/11/2 108/11/2 110/11/2
f 105/10/2 109/10/2 111/10/2
f 111/10/2 109/10/2 112/10/2
f 110/11/2 108/11/2 113/11/2
f 113/11/2 108/11/2 114/11/2
f 115/8/2 116/8/2 117/8/2
f 117/8/2 116/8/2 118/8/2
f 119/8/2 120/8/2 121/8/2
f 121/8/2 120/8/2 122/8/2
f 123/11/2 124/11/2 125/11/2
f 125/11/2 124/11/2 126/11/2
f 127/11/2 128/11/2 129/11/2
f 129/11/2 128/11/2 130/11/2
f 131/10/2 132/10/2 133/10/2
f 133/10/2 132/10/2 134/10/2
f 135/11/2 136/11/2 137/11/2
f 137/11/2 136/11/2 140/11/2
f 140/11/2 136/11/2 141/11/2
f 138/10/2 139/10/2 142/10/2
f 142/10/2 139/10/2 143/10/2
f 144/10/2 145/10/2 146/10/2
f 144/10/2 146/10/2 147/10/2
f 147/10/2 146/10/2 148/10/2
f 149/6/2 150/6/2 153/6/2
f 153/6/2 150/6/2 154/6/2
f 150/8/2 151/8/2 155/8/2
f 154/6/2 150/6/2 155/6/2
f 151/6/2 152/6/2 156/6/2
f 155/8/2 151/8/2 156/8/2
f 156/6/2 152/6/2 157/6/2
f 157/6/2 152/6/2 158/6/2
f 153/1/2 154/1/2 159/1/2
f 154/6/2 155/6/2 160/6/2
f 159/1/2 154/1/2 160/1/2
f 155/6/2 156/6/2 160/6/2
f 156/6/2 157/6/2 160/6/2
f 157/1/2 158/1/2 161/1/2
f 160/6/2 157/6/2 161/6/2
f 161/1/2 158/1/2 162/1/2
f 159/6/2 160/6/2 163/6/2
f 160/9/2 161/9/2 163/9/2
f 161/6/2 162/6/2 164/6/2
f 163/9/2 161/9/2 164/9/2
f 159/6/2 163/6/2 165/6/2
f 163/4/2 164/4/2 165/4/2
f 165/4/2 164/4/2 166/4/2
f 166/4/2 164/4/2 167/4/2
f 164/6/2 162/6/2 168/6/2
f 167/4/2 164/4/2 168/4/2
f 159/6/2 165/6/2 169/6/2
f 165/6/2 166/6/2 169/6/2
f 166/3/2 167/3/2 170/3/2
f 169/6/2 166/6/2 170/6/2
f 167/6/2 168/6/2 171/6/2
f 170/3/2 167/3/2 171/3/2
f 168/6/2 162/6/2 172/6/2
f 171/6/2 168/6/2 172/6/2
f 176/10/3 174/10/3 173/10/3
f 177/10/3 174/10/3 176/10/3
f 179/10/3 176/10/3 175/10/3
f 180/9/3 177/9/3 176/9/3
f 180/10/3 176/10/3 179/10/3
f 181/10/3 178/10/3 177/10/3
f 181/9/3 177/9/3 180/9/3
f 182/10/3 178/10/3 181/10/3
f 183/10/3 181/10/3 180/10/3
f 184/10/3 181/10/3 183/10/3
f 188/10/3 186/10/3 185/10/3
f 189/10/3 186/10/3 188/10/3
f 191/10/3 188/10/3 187/10/3
f 192/9/3 189/9/3 188/9/3
f 192/10/3 188/10/3 191/10/3
f 193/10/3 190/10/3 189/10/3
f 193/9/3 189/9/3 192/9/3
f 194/10/3 190/10/3 193/10/3
f 195/10/3 193/10/3 192/10/3
f 196/10/3 193/10/3 195/10/3
f 199/6/3 198/6/3 197/6/3
f 200/6/3 198/6/3 199/6/3
f 201/6/3 199/6/3 197/6/3
f 201/4/3 200/4/3 199/4/3
f 202/6/3 198/6/3 200/6/3
f 202/4/3 200/4/3 201/4/3
f 203/6/3 201/6/3 197/6/3
f 203/6/3 202/6/3 201/6/3
f 204/6/3 202/6/3 203/6/3
f 205/6/3 202/6/3 204/6/3
f 206/6/3 198/6/3 202/6/3
f 206/6/3 202/6/3 205/6/3
f 207/6/3 205/6/3 204/6/3
f 208/6/3 205/6/3 207/6/3
f 210/6/3 205/6/3 208/6/3
f 212/6/3 210/6/3 209/6/3
f 213/4/3 206/4/3 205/4/3
f 213/6/3 205/6/3 210/6/3
f 213/6/3 210/6/3 212/6/3
f 214/6/3 198/6/3 206/6/3
f 214/4/3 206/4/3 213/4/3
f 215/6/3 213/6/3 212/6/3
f 215/6/3 212/6/3 211/6/3
f 215/6/3 214/6/3 213/6/3
f 216/6/3 198/6/3 214/6/3
f 216/6/3 214/6/3 215/6/3
f 217/6/3 215/6/3 211/6/3
f 217/4/3 216/4/3 215/4/3
f 218/6/3 198/6/3 216/6/3
f 218/4/3 216/4/3 217/4/3
f 219/6/3 217/6/3 211/6/3
f 219/6/3 218/6/3 217/6/3
f 220/6/3 198/6/3 218/6/3
f 220/6/3 218/6/3 219/6/3
f 221/6/3 219/6/3 211/6/3
f 222/6/3 219/6/3 221/6/3
f 223/6/3 219/6/3 222/6/3
f 224/6/3 219/6/3 223/6/3
f 225/4/3 220/4/3 219/4/3
f 226/6/3 198/6/3 220/6/3
f 226/4/3 220/4/3 225/4/3
f 228/6/3 219/6/3 224/6/3
f 229/4/3 225/4/3 219/4/3
f 229/6/3 219/6/3 228/6/3
f 230/3/3 226/3/3 225/3/3
f 230/4/3 225/4/3 229/4/3
f 231/6/3 198/6/3 226/6/3
f 231/3/3 226/3/3 230/3/3
f 233/6/3 228/6/3 227/6/3
f 233/6/3 229/6/3 228/6/3
f 233/6/3 231/6/3 230/6/3
f 233/6/3 230/6/3 229/6/3
f 234/6/3 198/6/3 231/6/3
f 234/6/3 231/6/3 233/6/3
f 235/6/3 233/6/3 232/6/3
f 235/5/3 234/5/3 233/5/3
f 236/5/3 234/5/3 235/5/3
f 237/6/3 198/6/3 234/6/3
f 237/5/3 234/5/3 236/5/3
f 238/6/3 235/6/3 232/6/3
f 239/1/3 236/1/3 235/1/3
f 239/6/3 235/6/3 238/6/3
f 240/6/3 237/6/3 236/6/3
f 240/1/3 236/1/3 239/1/3
f 241/6/3 198/6/3 237/6/3
f 241/6/3 237/6/3 240/6/3
f 244/8/3 243/8/3 242/8/3
f 245/8/3 243/8/3 244/8/3
f 248/8/3 247/8/3 246/8/3
f 249/8/3 247/8/3 248/8/3
f 253/11/3 251/11/3 250/11/3
f 254/11/3 251/11/3 253/11/3
f 255/11/3 253/11/3 252/11/3
f 256/9/3 254/9/3 253/9/3
f 256/11/3 253/11/3 255/11/3
f 257/9/3 254/9/3 256/9/3
f 258/11/3 257/11/3 256/11/3
f 259/11/3 257/11/3 258/11/3
f 263/11/3 261/11/3 260/11/3
f 264/11/3 261/11/3 263/11/3
f 265/11/3 263/11/3 262/11/3
f 266/9/3 264/9/3 263/9/3
f 266/11/3 263/11/3 265/11/3
f 267/9/3 264/9/3 266/9/3
f 268/11/3 267/11/3 266/11/3
f 269/11/3 267/11/3 268/11/3
f 270/10/4 271/10/4 273/10/4
f 273/10/4 271/10/4 274/10/4
f 272/10/4 273/10/4 275/10/4
f 273/9/4 274/9/4 276/9/4
f 275/10/4 273/10/4 276/10/4
f 276/9/4 274/9/4 277/9/4
f 276/10/4 277/10/4 278/10/4
f 278/10/4 277/10/4 279/10/4
f 280/10/4 281/10/4 283/10/4
f 283/10/4 281/10/4 284/10/4
f 282/10/4 283/10/4 285/10/4
f 283/9/4 284/9/4 286/9/4
f 285/10/4 283/10/4 286/10/4
f 286/9/4 284/9/4 287/9/4
f 286/10/4 287/10/4 288/10/4
f 288/10/4 287/10/4 289/10/4
f 290/8/4 291/8/4 292/8/4
f 292/8/4 291/8/4 293/8/4
f 294/8/4 295/8/4 296/8/4
f 296/8/4 295/8/4 297/8/4
f 298/6/4 299/6/4 300/6/4
f 300/6/4 299/6/4 301/6/4
f 298/6/4 300/6/4 302/6/4
f 300/5/4 301/5/4 302/5/4
f 301/6/4 299/6/4 303/6/4
f 302/5/4 301/5/4 303/5/4
f 298/6/4 302/6/4 304/6/4
f 302/6/4 303/6/4 304/6/4
f 304/6/4 303/6/4 305/6/4
f 305/6/4 303/6/4 306/6/4
f 303/6/4 299/6/4 307/6/4
f 306/6/4 303/6/4 307/6/4
f 305/6/4 306/6/4 308/6/4
f 308/6/4 306/6/4 309/6/4
f 309/6/4 306/6/4 311/6/4
f 310/6/4 311/6/4 313/6/4
f 306/5/4 307/5/4 314/5/4
f 311/6/4 306/6/4 314/6/4
f 313/6/4 311/6/4 314/6/4
f 307/6/4 299/6/4 315/6/4
f 314/5/4 307/5/4 315/5/4
f 313/6/4 314/6/4 316/6/4
f 312/6/4 313/6/4 316/6/4
f 314/6/4 315/6/4 316/6/4
f 315/6/4 299/6/4 317/6/4
f 316/6/4 315/6/4 317/6/4
f 312/6/4 316/6/4 318/6/4
f 316/5/4 317/5/4 318/5/4
f 317/6/4 299/6/4 319/6/4
f 318/5/4 317/5/4 319/5/4
f 312/6/4 318/6/4 320/6/4
f 318/6/4 319/6/4 320/6/4
f 319/6/4 299/6/4 321/6/4
f 320/6/4 319/6/4 321/6/4
f 312/6/4 320/6/4 322/6/4
f 322/6/4 320/6/4 323/6/4
f 323/6/4 320/6/4 324/6/4
f 324/6/4 320/6/4 325/6/4
f 320/5/4 321/5/4 326/5/4
f 321/6/4 299/6/4 327/6/4
f 326/5/4 321/5/4 327/5/4
f 325/6/4 320/6/4 329/6/4
f 328/6/4 329/6/4 331/6/4
f 320/5/4 326/5/4 332/5/4
f 329/6/4 320/6/4 332/6/4
f 331/6/4 329/6/4 332/6/4
f 326/3/4 327/3/4 333/3/4
f 332/5/4 326/5/4 333/5/4
f 327/6/4 299/6/4 334/6/4
f 333/3/4 327/3/4 334/3/4
f 330/6/4 331/6/4 335/6/4
f 332/6/4 333/6/4 335/6/4
f 333/6/4 334/6/4 335/6/4
f 331/6/4 332/6/4 335/6/4
f 334/6/4 299/6/4 336/6/4
f 335/6/4 334/6/4 336/6/4
f 330/6/4 335/6/4 337/6/4
f 337/6/4 335/6/4 338/6/4
f 335/5/4 336/5/4 339/5/4
f 338/6/4 335/6/4 339/6/4
f 336/6/4 299/6/4 340/6/4
f 339/5/4 336/5/4 340/5/4
f 330/6/4 337/6/4 341/6/4
f 337/1/4 338/1/4 342/1/4
f 341/6/4 337/6/4 342/6/4
f 338/6/4 339/6/4 343/6/4
f 342/1/4 338/1/4 343/1/4
f 339/6/4 340/6/4 343/6/4
f 340/6/4 299/6/4 344/6/4
f 343/6/4 340/6/4 344/6/4
f 345/11/4 346/11/4 348/11/4
f 348/11/4 346/11/4 349/11/4
f 347/11/4 348/11/4 351/11/4
f 348/9/4 349/9/4 352/9/4
f 351/11/4 348/11/4 352/11/4
f 349/11/4 350/11/4 353/11/4
f 352/9/4 349/9/4 353/9/4
f 353/11/4 350/11/4 354/11/4
f 352/11/4 353/11/4 355/11/4
f 355/11/4 353/11/4 356/11/4
f 357/11/4 358/11/4 360/11/4
f 360/11/4 358/11/4 361/11/4
f 359/11/4 360/11/4 363/11/4
f 360/9/4 361/9/4 364/9/4
f 363/11/4 360/11/4 364/11/4
f 361/11/4 362/11/4 365/11/4
f 364/9/4 361/9/4 365/9/4
f 365/11/4 362/11/4 366/11/4
f 364/11/4 365/11/4 367/11/4
f 367/11/4 365/11/4 368/11/4
f 373/10/5 370/10/5 369/10/5
f 374/10/5 370/10/5 373/10/5
f 375/10/5 372/10/5 371/10/5
f 376/10/5 372/10/5 375/10/5
f 381/11/5 378/11/5 377/11/5
f 382/11/5 378/11/5 381/11/5
f 383/11/5 380/11/5 379/11/5
f 384/11/5 380/11/5 383/11/5
f 393/10/5 386/10/5 385/10/5
f 394/10/5 386/10/5 393/10/5
f 395/10/5 388/10/5 387/10/5
f 396/10/5 388/10/5 395/10/5
f 397/10/5 390/10/5 389/10/5
f 398/10/5 390/10/5 397/10/5
f 399/10/5 392/10/5 391/10/5
f 400/10/5 392/10/5 399/10/5
f 409/11/5 402/11/5 401/11/5
f 410/11/5 402/11/5 409/11/5
f 411/11/5 404/11/5 403/11/5
f 412/11/5 404/11/5 411/11/5
f 413/11/5 406/11/5 405/11/5
f 414/11/5 406/11/5 413/11/5
f 415/11/5 408/11/5 407/11/5
f 416/11/5 408/11/5 415/11/5
f 427/6/5 418/6/5 417/6/5
f 427/6/5 426/6/5 425/6/5
f 427/6/5 425/6/5 424/6/5
f 427/6/5 424/6/5 423/6/5
f 427/6/5 423/6/5 422/6/5
f 427/6/5 422/6/5 421/6/5
f 427/6/5 421/6/5 420/6/5
f 427/6/5 420/6/5 419/6/5
f 427/6/5 419/6/5 418/6/5
f 428/6/5 426/6/5 427/6/5
f 429/2/5 428/2/5 427/2/5
f 430/6/5 426/6/5 428/6/5
f 430/2/5 428/2/5 429/2/5
f 431/6/5 430/6/5 429/6/5
f 432/6/5 426/6/5 430/6/5
f 432/6/5 430/6/5 431/6/5
f 433/6/5 426/6/5 432/6/5
f 434/6/5 426/6/5 433/6/5
f 435/8/5 432/8/5 431/8/5
f 436/6/5 433/6/5 432/6/5
f 436/8/5 432/8/5 435/8/5
f 437/8/5 434/8/5 433/8/5
f 437/6/5 433/6/5 436/6/5
f 438/8/5 434/8/5 437/8/5
f 439/6/5 436/6/5 435/6/5
f 439/6/5 437/6/5 436/6/5
f 439/6/5 438/6/5 437/6/5
f 440/6/5 438/6/5 439/6/5
f 441/2/5 440/2/5 439/2/5
f 442/6/5 438/6/5 440/6/5
f 442/2/5 440/2/5 441/2/5
f 443/6/5 442/6/5 441/6/5
f 444/6/5 438/6/5 442/6/5
f 444/6/5 442/6/5 443/6/5
f 445/6/5 438/6/5 444/6/5
f 446/6/5 438/6/5 445/6/5
f 447/6/5 438/6/5 446/6/5
f 448/6/5 438/6/5 447/6/5
f 449/6/5 438/6/5 448/6/5
f 450/6/5 438/6/5 449/6/5
f 451/6/5 438/6/5 450/6/5
f 452/6/5 438/6/5 451/6/5
f 453/10/6 454/10/6 461/10/6
f 461/10/6 454/10/6 462/10/6
f 455/10/6 456/10/6 463/10/6
f 463/10/6 456/10/6 464/10/6
f 457/10/6 458/10/6 465/10/6
f 465/10/6 458/10/6 466/10/6
f 459/10/6 460/10/6 467/10/6
f 467/10/6 460/10/6 468/10/6
f 469/11/6 470/11/6 477/11/6
f 477/11/6 470/11/6 478/11/6
f 471/11/6 472/11/6 479/11/6
f 479/11/6 472/11/6 480/11/6
f 473/11/6 474/11/6 481/11/6
f 481/11/6 474/11/6 482/11/6
f 475/11/6 476/11/6 483/11/6
f 483/11/6 476/11/6 484/11/6
f 485/10/6 486/10/6 489/10/6
f 489/10/6 486/10/6 490/10/6
f 487/10/6 488/10/6 491/10/6
f 491/10/6 488/10/6 492/10/6
f 493/11/6 494/11/6 497/11/6
f 497/11/6 494/11/6 498/11/6
f 495/11/6 496/11/6 499/11/6
f 499/11/6 496/11/6 500/11/6
f 501/6/6 502/6/6 503/6/6
f 503/6/6 502/6/6 504/6/6
f 504/6/6 502/6/6 505/6/6
f 505/6/6 502/6/6 506/6/6
f 501/6/6 503/6/6 507/6/6
f 507/6/6 503/6/6 508/6/6
f 501/6/6 507/6/6 509/6/6
f 508/6/6 503/6/6 510/6/6
f 510/6/6 503/6/6 511/6/6
f 509/6/6 510/6/6 511/6/6
f 504/6/6 505/6/6 512/6/6
f 505/3/6 506/3/6 513/3/6
f 512/6/6 505/6/6 513/6/6
f 513/3/6 506/3/6 514/3/6
f 511/6/6 512/6/6 515/6/6
f 509/6/6 511/6/6 515/6/6
f 513/6/6 514/6/6 515/6/6
f 512/6/6 513/6/6 515/6/6
f 501/6/6 509/6/6 515/6/6
f 515/6/6 514/6/6 516/6/6
f 519/8/6 520/8/6 521/8/6
f 521/8/6 520/8/6 522/8/6
f 517/8/6 518/8/6 523/8/6
f 523/8/6 518/8/6 524/8/6
